<?xml version="1.0" standalone="no"?>
<!DOCTYPE svg PUBLIC "-//W3C//DTD SVG 20010904//EN"
 "http://www.w3.org/TR/2001/REC-SVG-20010904/DTD/svg10.dtd">
<svg version="1.0" xmlns="http://www.w3.org/2000/svg"
 width="695.000000pt" height="1280.000000pt" viewBox="0 0 695.000000 1280.000000"
 preserveAspectRatio="xMidYMid meet">
<metadata>
Created by potrace 1.15, written by Peter Selinger 2001-2017
</metadata>
<g transform="translate(0.000000,1280.000000) scale(0.100000,-0.100000)"
fill="#000000" stroke="none">
<path d="M4545 12786 c-17 -12 -22 -56 -51 -417 -18 -222 -33 -406 -33 -408
-1 -2 -9 0 -18 3 -17 6 -17 5 0 -8 29 -22 20 -31 -55 -55 -121 -38 -280 -124
-350 -189 l-27 -25 -5 24 c-3 13 -37 244 -75 512 -39 277 -75 494 -82 503 -18
21 -78 14 -94 -11 -10 -17 2 -118 69 -587 l82 -566 -20 -39 c-10 -21 -27 -63
-37 -93 -16 -54 -17 -55 -60 -60 l-44 -5 43 -8 42 -7 0 -83 c0 -136 48 -273
145 -417 l44 -65 42 -293 c23 -161 39 -295 37 -298 -3 -2 -189 1 -414 7 -299
9 -498 9 -739 1 -181 -6 -331 -10 -332 -8 -4 4 -163 979 -163 1001 0 6 21 21
46 35 67 35 133 106 168 180 29 60 31 73 31 170 0 99 -2 110 -33 172 -41 85
-128 167 -209 199 -45 18 -79 23 -153 23 -87 1 -100 -2 -162 -32 -85 -41 -153
-109 -192 -192 -29 -60 -31 -73 -31 -170 0 -99 2 -110 33 -172 57 -117 173
-204 300 -224 l37 -6 28 -181 c15 -100 27 -185 27 -189 0 -5 -30 17 -67 47
-86 70 -245 149 -348 174 -160 39 -334 36 -475 -8 -58 -18 -59 -18 -65 0 -3
11 -7 27 -10 38 -4 15 6 25 47 49 205 115 244 381 81 548 -59 61 -138 96 -230
102 -40 3 -75 7 -77 11 -2 3 -7 22 -11 42 -6 34 -5 36 34 54 57 25 130 100
160 165 29 63 39 172 22 235 -17 65 -72 147 -126 187 -63 48 -131 71 -211 71
l-63 0 -12 52 c-15 68 -20 75 -47 68 -26 -6 -26 -11 -8 -80 l14 -52 -53 -30
c-59 -34 -114 -93 -147 -160 -19 -38 -23 -62 -23 -146 0 -90 3 -105 28 -153
60 -114 165 -182 294 -190 40 -3 75 -7 77 -11 2 -3 7 -22 11 -42 7 -36 6 -37
-40 -60 -178 -89 -238 -325 -126 -501 58 -91 171 -151 287 -152 l62 -1 10 -43
c9 -41 8 -44 -15 -53 -64 -24 -188 -117 -265 -198 -93 -98 -136 -165 -184
-283 -28 -70 -38 -84 -81 -113 -181 -121 -323 -327 -374 -540 -30 -124 -30
-295 0 -420 25 -103 103 -272 153 -329 l35 -40 224 194 c123 106 236 204 250
217 l26 24 44 -37 c24 -20 45 -39 46 -43 12 -40 119 -403 146 -491 86 -290
148 -523 162 -615 8 -58 15 -168 15 -260 0 -311 -51 -526 -197 -833 -323 -683
-456 -1167 -470 -1708 -12 -475 66 -836 268 -1234 117 -231 307 -512 448 -664
332 -356 711 -599 1140 -733 l120 -37 -36 -21 c-49 -27 -75 -65 -75 -108 0
-42 31 -91 71 -111 20 -11 172 -46 197 -46 2 0 4 -44 4 -98 0 -96 -1 -99 -30
-127 -71 -68 -125 -186 -136 -299 -12 -120 39 -270 125 -368 38 -42 41 -51 41
-102 0 -52 -2 -56 -24 -56 -45 0 -433 -20 -586 -30 -1010 -67 -1867 -254
-2197 -478 -499 -339 124 -700 1522 -881 533 -69 987 -95 1675 -95 495 0 720
7 1075 34 1278 99 2176 353 2281 648 19 53 17 81 -10 137 -98 206 -548 384
-1301 515 -254 44 -557 80 -965 115 -117 10 -633 35 -727 35 l-93 0 0 58 c0
50 4 62 25 82 39 37 90 118 114 183 60 164 22 362 -95 487 l-44 47 0 96 0 95
28 6 c15 3 55 10 89 17 102 19 154 63 156 133 1 42 -24 81 -70 108 l-35 21 96
29 c182 54 417 158 581 258 324 197 630 497 824 807 28 46 74 120 103 165 79
127 192 368 242 520 95 286 132 552 123 897 -14 529 -141 999 -451 1663 -161
345 -205 513 -213 810 -5 172 5 313 29 418 23 98 150 533 193 660 83 246 206
664 217 740 9 62 9 81 -3 105 -20 41 -105 90 -222 126 -90 28 -97 33 -91 52 4
12 7 23 8 24 1 1 32 -5 69 -13 89 -18 267 -41 394 -49 82 -6 103 -10 106 -24
4 -14 5 -14 6 0 1 14 19 18 104 23 149 10 289 32 396 63 l94 26 29 -34 30 -34
-22 32 c-21 32 -20 53 2 53 20 0 174 83 235 126 77 55 152 139 193 215 29 54
33 58 53 48 20 -9 21 -9 4 4 -17 14 -17 19 -3 91 20 93 20 134 2 228 -17 86
-52 178 -96 249 -17 28 -28 54 -25 60 4 5 0 9 -7 9 -7 0 -25 17 -39 38 -82
114 -266 279 -422 376 -58 36 -75 51 -65 58 9 7 8 8 -5 4 -11 -3 -67 19 -145
58 -280 140 -602 234 -921 267 -127 13 -485 7 -565 -11 -27 -5 -50 -9 -52 -8
-1 2 12 184 29 405 31 393 31 402 13 422 -22 24 -54 27 -81 7z m-296 -2225
l53 -45 -22 -18 c-27 -22 -18 -24 13 -4 17 12 25 12 38 3 15 -11 16 -27 5
-164 -6 -84 -14 -155 -18 -158 -3 -4 -26 -4 -50 0 l-44 7 -28 201 c-15 111
-30 213 -34 227 -6 29 -9 30 87 -49z m341 -223 c96 -52 237 -113 355 -153 44
-16 86 -35 93 -43 6 -9 12 -11 12 -5 0 17 124 -20 127 -38 6 -33 -10 -38 -77
-23 -36 8 -81 16 -100 19 -19 2 -80 11 -135 19 -55 8 -173 23 -263 32 l-163
18 5 25 c3 14 8 70 11 124 7 97 7 98 28 84 12 -7 60 -34 107 -59z m-835 -169
c187 -5 343 -13 347 -17 7 -7 90 -554 84 -559 -22 -22 -1454 -40 -1475 -18
-10 10 -102 577 -95 584 5 5 391 17 629 19 94 1 323 -3 510 -9z m562 -32 c4
-5 -13 -255 -24 -337 -5 -39 -9 -24 -29 110 -12 85 -26 175 -29 199 l-7 44 42
-6 c23 -3 44 -8 47 -10z m433 -38 c212 -26 405 -62 404 -74 -1 -6 -25 -85 -54
-177 l-53 -166 -63 -11 c-78 -14 -505 -61 -550 -61 -21 0 -34 5 -34 13 0 6 9
120 20 252 11 132 20 244 20 249 0 10 80 4 310 -25z m590 -116 c268 -87 228
-176 -119 -264 -63 -16 -116 -27 -118 -26 -2 3 79 254 102 315 5 15 26 11 135
-25z m-2814 -342 l7 -64 -48 6 c-26 4 -54 7 -62 7 -11 0 -7 9 10 30 14 17 36
48 48 70 27 48 35 40 45 -49z m2875 -57 c19 -23 2 -105 -85 -414 -240 -850
-246 -877 -246 -1134 0 -324 49 -521 220 -891 242 -521 355 -869 423 -1305 29
-186 31 -626 4 -800 -49 -316 -148 -606 -294 -860 -185 -324 -333 -522 -527
-708 -365 -348 -800 -569 -1307 -662 -177 -33 -309 -36 -474 -11 -571 85
-1077 345 -1475 757 -131 136 -213 240 -328 419 -240 375 -356 668 -417 1055
-23 143 -31 476 -16 637 44 471 170 893 443 1483 172 370 218 556 218 879 0
211 -16 317 -91 587 -33 121 -75 282 -94 359 -19 77 -48 190 -65 250 -16 61
-30 115 -30 122 0 8 23 2 64 -17 114 -51 202 -71 334 -77 67 -3 122 -6 122 -7
0 0 38 -147 84 -324 52 -205 79 -325 72 -327 -6 -2 -58 -14 -116 -28 -127 -30
-205 -59 -244 -90 l-29 -24 19 -109 c23 -134 27 -476 6 -594 -39 -218 -89
-366 -211 -627 -407 -870 -532 -1569 -396 -2226 57 -274 188 -593 337 -822 25
-38 62 -97 83 -130 103 -163 279 -365 438 -502 407 -352 857 -548 1404 -613
74 -9 115 -8 215 5 537 69 976 269 1381 630 265 236 557 668 707 1046 117 293
181 684 165 1009 -25 515 -155 981 -448 1610 -111 238 -146 334 -181 491 -56
255 -60 503 -9 749 l15 75 -36 31 c-37 32 -139 71 -249 95 -33 7 -56 17 -54
23 2 6 75 225 162 486 87 261 160 478 164 482 6 7 226 34 297 37 18 0 37 -6
45 -15z m-397 -36 c-100 -317 -304 -952 -306 -954 -8 -7 -241 35 -247 44 -4 6
-24 136 -45 289 l-39 278 14 165 14 165 140 7 c212 11 448 25 463 26 9 2 11
-5 6 -20z m-2463 -37 c4 -4 106 -638 133 -825 0 -5 -90 -17 -201 -27 -111 -9
-261 -24 -333 -34 -73 -9 -133 -15 -135 -13 -5 5 -167 640 -163 642 2 1 42 11
91 23 137 34 266 106 391 215 l39 34 86 -4 c47 -2 89 -7 92 -11z m1659 7 c0
-7 11 -85 24 -173 l23 -160 -21 -265 -21 -265 -25 1 c-14 1 -119 8 -235 15
-120 8 -401 14 -656 14 l-446 0 -64 410 -64 410 505 2 c278 0 579 5 670 10
254 15 310 15 310 1z"/>
<path d="M6848 11153 c7 -3 16 -2 19 1 4 3 -2 6 -13 5 -11 0 -14 -3 -6 -6z"/>
<path d="M5812 9970 c0 -14 2 -19 5 -12 2 6 2 18 0 25 -3 6 -5 1 -5 -13z"/>
</g>
</svg>
